{"accessors" : [{"bufferView" : 0, "byteOffset" : 0, "componentType" : 5123, "count" : 3297, "type" : "SCALAR", "max" : [3296], "min" : [0]}, {"bufferView" : 1, "byteOffset" : 0, "componentType" : 5126, "count" : 3297, "type" : "VEC3", "max" : [240.00001525878906, 996.3519897460938, 530], "min" : [-240.00001525878906, 0, -530], "name" : "POSITION"}, {"bufferView" : 1, "byteOffset" : 12, "componentType" : 5126, "count" : 3297, "type" : "VEC3", "max" : [1.0000044107437134, 1.0000044107437134, 1.0000044107437134], "min" : [-1.0000044107437134, -1.0000044107437134, -1.0000044107437134], "name" : "NORMAL"}, {"bufferView" : 1, "byteOffset" : 24, "componentType" : 5126, "count" : 3297, "type" : "VEC4", "max" : [1.0000044107437134, 0.3881034851074219, 1.0000044107437134, 1], "min" : [-1.0000044107437134, -0.3881034851074219, -1.0000044107437134, 1], "name" : "TANGENT"}, {"bufferView" : 1, "byteOffset" : 40, "componentType" : 5126, "count" : 3297, "type" : "VEC2", "max" : [0.96875, 0.9750000238418579], "min" : [0.09375, 0.574999988079071], "name" : "TEXCOORD_0"}, {"bufferView" : 0, "byteOffset" : 6596, "componentType" : 5123, "count" : 540, "type" : "SCALAR", "max" : [539], "min" : [0]}, {"bufferView" : 2, "byteOffset" : 0, "componentType" : 5126, "count" : 540, "type" : "VEC3", "max" : [220, 362.5, 86.25], "min" : [-220, 0, -9.999979972839355], "name" : "POSITION"}, {"bufferView" : 2, "byteOffset" : 12, "componentType" : 5126, "count" : 540, "type" : "VEC3", "max" : [1.0000044107437134, 0.9238835573196411, 0.9238835573196411], "min" : [-1.0000044107437134, -0.9238835573196411, -1.0000044107437134], "name" : "NORMAL"}, {"bufferView" : 2, "byteOffset" : 24, "componentType" : 5126, "count" : 540, "type" : "VEC4", "max" : [1.0000044107437134, 0, 1.0000044107437134, 1], "min" : [-1.0000044107437134, 0, -1.0000044107437134, 1], "name" : "TANGENT"}, {"bufferView" : 2, "byteOffset" : 40, "componentType" : 5126, "count" : 540, "type" : "VEC2", "max" : [0.84375, 0.9750000238418579], "min" : [0.09375, 0.5249999761581421], "name" : "TEXCOORD_0"}, {"bufferView" : 0, "byteOffset" : 7676, "componentType" : 5123, "count" : 540, "type" : "SCALAR", "max" : [539], "min" : [0]}, {"bufferView" : 3, "byteOffset" : 0, "componentType" : 5126, "count" : 540, "type" : "VEC3", "max" : [220, 472.5, 107.49999237060547], "min" : [-220, 0, -9.999979972839355], "name" : "POSITION"}, {"bufferView" : 3, "byteOffset" : 12, "componentType" : 5126, "count" : 540, "type" : "VEC3", "max" : [1.0000044107437134, 0.9238835573196411, 0.9238835573196411], "min" : [-1.0000044107437134, -0.9238835573196411, -1.0000044107437134], "name" : "NORMAL"}, {"bufferView" : 3, "byteOffset" : 24, "componentType" : 5126, "count" : 540, "type" : "VEC4", "max" : [1.0000044107437134, 0, 1.0000044107437134, 1], "min" : [-1.0000044107437134, 0, -1.0000044107437134, 1], "name" : "TANGENT"}, {"bufferView" : 3, "byteOffset" : 40, "componentType" : 5126, "count" : 540, "type" : "VEC2", "max" : [0.84375, 0.9750000238418579], "min" : [0.09375, 0.5249999761581421], "name" : "TEXCOORD_0"}, {"bufferView" : 0, "byteOffset" : 8756, "componentType" : 5123, "count" : 264, "type" : "SCALAR", "max" : [263], "min" : [0]}, {"bufferView" : 4, "byteOffset" : 0, "componentType" : 5126, "count" : 264, "type" : "VEC3", "max" : [17.5450496673584, 96.20249938964844, 17.5450496673584], "min" : [-17.5450496673584, 0, -117.88900756835938], "name" : "POSITION"}, {"bufferView" : 4, "byteOffset" : 12, "componentType" : 5126, "count" : 264, "type" : "VEC3", "max" : [0.9578912854194641, 1.0000044107437134, 0.9238835573196411], "min" : [-0.9578912854194641, -1.0000044107437134, -0.9238835573196411], "name" : "NORMAL"}, {"bufferView" : 4, "byteOffset" : 24, "componentType" : 5126, "count" : 264, "type" : "VEC4", "max" : [1.0000044107437134, 0, 0.9238835573196411, 1], "min" : [-1.0000044107437134, 0, -0.9578912854194641, 1], "name" : "TANGENT"}, {"bufferView" : 4, "byteOffset" : 40, "componentType" : 5126, "count" : 264, "type" : "VEC2", "max" : [0.71875, 0.9750000238418579], "min" : [0.71875, 0.7749999761581421], "name" : "TEXCOORD_0"}, {"bufferView" : 0, "byteOffset" : 9284, "componentType" : 5123, "count" : 264, "type" : "SCALAR", "max" : [263], "min" : [0]}, {"bufferView" : 5, "byteOffset" : 0, "componentType" : 5126, "count" : 264, "type" : "VEC3", "max" : [17.5450496673584, 96.20249938964844, 17.5450496673584], "min" : [-17.5450496673584, 0, -117.88900756835938], "name" : "POSITION"}, {"bufferView" : 5, "byteOffset" : 12, "componentType" : 5126, "count" : 264, "type" : "VEC3", "max" : [0.9578912854194641, 1.0000044107437134, 0.9238835573196411], "min" : [-0.9578912854194641, -1.0000044107437134, -0.9238835573196411], "name" : "NORMAL"}, {"bufferView" : 5, "byteOffset" : 24, "componentType" : 5126, "count" : 264, "type" : "VEC4", "max" : [1.0000044107437134, 0, 0.9238835573196411, 1], "min" : [-1.0000044107437134, 0, -0.9578912854194641, 1], "name" : "TANGENT"}, {"bufferView" : 5, "byteOffset" : 40, "componentType" : 5126, "count" : 264, "type" : "VEC2", "max" : [0.71875, 0.9750000238418579], "min" : [0.71875, 0.7749999761581421], "name" : "TEXCOORD_0"}, {"bufferView" : 0, "byteOffset" : 9812, "componentType" : 5123, "count" : 264, "type" : "SCALAR", "max" : [263], "min" : [0]}, {"bufferView" : 6, "byteOffset" : 0, "componentType" : 5126, "count" : 264, "type" : "VEC3", "max" : [17.5450496673584, 96.20249938964844, 17.5450496673584], "min" : [-17.5450496673584, 0, -117.88900756835938], "name" : "POSITION"}, {"bufferView" : 6, "byteOffset" : 12, "componentType" : 5126, "count" : 264, "type" : "VEC3", "max" : [0.9578912854194641, 1.0000044107437134, 0.9238835573196411], "min" : [-0.9578912854194641, -1.0000044107437134, -0.9238835573196411], "name" : "NORMAL"}, {"bufferView" : 6, "byteOffset" : 24, "componentType" : 5126, "count" : 264, "type" : "VEC4", "max" : [1.0000044107437134, 0, 0.9238835573196411, 1], "min" : [-1.0000044107437134, 0, -0.9578912854194641, 1], "name" : "TANGENT"}, {"bufferView" : 6, "byteOffset" : 40, "componentType" : 5126, "count" : 264, "type" : "VEC2", "max" : [0.71875, 0.9750000238418579], "min" : [0.71875, 0.7749999761581421], "name" : "TEXCOORD_0"}], "asset" : {"generator" : "Aspose.3D 24.9.1", "version" : "2.0"}, "buffers" : [{"uri" : "data:application/octet-stream;base64,", "byteLength" : 258480}], "bufferViews" : [{"buffer" : 0, "byteOffset" : 0, "byteLength" : 10340, "target" : 34963}, {"buffer" : 0, "byteOffset" : 10344, "byteLength" : 158256, "byteStride" : 48, "target" : 34962}, {"buffer" : 0, "byteOffset" : 168604, "byteLength" : 25920, "byteStride" : 48, "target" : 34962}, {"buffer" : 0, "byteOffset" : 194528, "byteLength" : 25920, "byteStride" : 48, "target" : 34962}, {"buffer" : 0, "byteOffset" : 220452, "byteLength" : 12672, "byteStride" : 48, "target" : 34962}, {"buffer" : 0, "byteOffset" : 233128, "byteLength" : 12672, "byteStride" : 48, "target" : 34962}, {"buffer" : 0, "byteOffset" : 245804, "byteLength" : 12672, "byteStride" : 48, "target" : 34962}], "images" : [{"uri" : "Textures\\colormap.png"}], "materials" : [{"name" : "colormap", "pbrMetallicRoughness" : {"baseColorFactor" : [1, 1, 1, 1], "baseColorTexture" : {"index" : 0, "texCoord" : 0}, "metallicFactor" : 1, "roughnessFactor" : 1}, "emissiveFactor" : [0, 0, 0], "alphaMode" : "OPAQUE", "doubleSided" : false}], "meshes" : [{"primitives" : [{"attributes" : {"POSITION" : 1, "NORMAL" : 2, "TANGENT" : 3, "TEXCOORD_0" : 4}, "indices" : 0, "material" : 0, "mode" : 4}], "name" : "Scene"}, {"primitives" : [{"attributes" : {"POSITION" : 6, "NORMAL" : 7, "TANGENT" : 8, "TEXCOORD_0" : 9}, "indices" : 5, "material" : 0, "mode" : 4}], "name" : "Scene"}, {"primitives" : [{"attributes" : {"POSITION" : 11, "NORMAL" : 12, "TANGENT" : 13, "TEXCOORD_0" : 14}, "indices" : 10, "material" : 0, "mode" : 4}], "name" : "Scene"}, {"primitives" : [{"attributes" : {"POSITION" : 16, "NORMAL" : 17, "TANGENT" : 18, "TEXCOORD_0" : 19}, "indices" : 15, "material" : 0, "mode" : 4}], "name" : "Scene"}, {"primitives" : [{"attributes" : {"POSITION" : 21, "NORMAL" : 22, "TANGENT" : 23, "TEXCOORD_0" : 24}, "indices" : 20, "material" : 0, "mode" : 4}], "name" : "Scene"}, {"primitives" : [{"attributes" : {"POSITION" : 26, "NORMAL" : 27, "TANGENT" : 28, "TEXCOORD_0" : 29}, "indices" : 25, "material" : 0, "mode" : 4}], "name" : "Scene"}], "nodes" : [{"matrix" : [1, 0, 0, 0, 0, 1, 0, 0, 0, 0, 1, 0, -6.497202644330843E-13, 454.74562644958496, -400.7266044616699, 1], "mesh" : 1, "name" : "sail-b"}, {"matrix" : [1, 0, 0, 0, 0, 1, 0, 0, 0, 0, 1, 0, -7.219114108078224E-14, 313.85200023651123, 66.66275262832642, 1], "mesh" : 2, "name" : "sail-a"}, {"matrix" : [1, 0, 0, 0, 0, 1, 0, 0, 0, 0, 1, 0, -9.384848075803896E-13, 823.7974166870117, -400.7266044616699, 1], "mesh" : 3, "name" : "flag-c"}, {"matrix" : [1, 0, 0, 0, 0, 1, 0, 0, 0, 0, 1, 0, -1.2272494354309896E-12, 883.797550201416, 68.0233895778656, 1], "mesh" : 4, "name" : "flag-b"}, {"matrix" : [1, 0, 0, 0, 0, 1, 0, 0, 0, 0, 1, 0, 1.3716317070046422E-12, 548.0975151062012, 296.5322494506836, 1], "mesh" : 5, "name" : "flag-a"}, {"children" : [0, 1, 2, 3, 4], "mesh" : 0, "name" : "ship-medium"}], "samplers" : [{"magFilter" : 9729, "minFilter" : 9729, "wrapS" : 10497, "wrapT" : 10497}], "scene" : 0, "scenes" : [{"nodes" : [5]}], "textures" : [{"sampler" : 0, "source" : 0, "name" : "DiffuseColor_Texture"}]}